<svg xmlns="http://www.w3.org/2000/svg" viewBox="0 0 2030.63 1594"><defs><style>.cls-1{fill:#404040;}.cls-2{fill:#7f7f7f;}</style></defs><title>fork2</title><g id="Draw_Layer" data-name="Draw Layer"><path class="cls-1" d="M1007.34,1099.48c-10.1.18-20.19.36-30.29.6s-20.32.3-30.49.51c-11.81.25-23.63.45-35.45.76-12.83.34-25.67.48-38.5.55s-25.57.13-38.35.33c-13.86.21-27.73.39-41.6.41H779.44c-8.69,0-17.39,0-26.07.07-13.16.16-26.32.23-39.48.43-5.72.09-11.43.2-17.14.61-6,.42-11.94,1.08-17.89,1.85-6.22.81-12.45,1.57-18.67,2.46-4.66.67-9.28,1.52-13.94,2.15l.22,0-4.29.57.5-.07c-4.63.61-9.22,1.39-13.84,2.07-12.88,1.54-25.84,1.82-38.78,2.47a0,0,0,0,0,0,0c12.94.65,25.9.93,38.78,2.47,4.62.68,9.21,1.46,13.84,2.07l-1.21-.16,5.25.7c3.32.46,6.63,1,9.94,1.58,4,.69,8,1.15,12,1.68,10.08,1.37,20.16,2.57,30.3,3.3,5,.36,9.95.38,14.92.45,5.15.08,10.29.12,15.43.18,11.47.12,22.94.29,34.41.33,5.71,0,11.43,0,17.14,0q7.26,0,14.51,0c11.28,0,22.56.16,33.84.33,21.4.33,42.8.34,64.2.63,9.88.13,19.76.38,29.63.64,10.13.26,20.26.4,30.39.58,9.68.18,19.36.27,29,.51,11,.26,22,.42,33,.61,9.74.18,19.46.16,29.19.15,10.53,0,21,0,31.58-.13,9.65-.1,19.3-.11,29-.15,10.81,0,21.62-.19,32.43-.25,21.53-.12,43.06-.42,64.59-.48s42.84-.17,64.26-.22q15.66,0,31.32-.11c11.3-.06,22.61.07,33.92.08q6.85,0,13.72,0c5.52,0,11,0,16.56,0,10.34,0,20.69.1,31,.09,10,0,20,.08,30,.12q9.1,0,18.22,0c4.72,0,9.44,0,14.17,0l28.89,0c10.61,0,21.22.24,31.83.23q30.36,0,60.72,0c10.24,0,20.47,0,30.71.13s20.68,0,31,0c10.93-.07,21.87,0,32.8-.1,10.68,0,21.37-.13,32.06-.13,12,0,23.91,0,35.87-.06s24.15-.22,36.22-.18q8.49,0,17,0c5.65,0,11.31,0,17,0,9.34,0,18.67,0,28-.46,3.43-.15,6.86-.29,10.3-.47,4.79-.25,9.53-.74,14.28-1.37,5.33-.7,10.62-1.6,15.91-2.56,5-.92,10.08-1.67,15.14-2.4,10-1.3,20-2.62,30-3.76,11.31-1.29,22.6-2.76,33.94-3.79,0,0,0,0,0,0-11.34-1-22.63-2.5-33.94-3.79-10-1.14-20-2.46-30-3.76-7-1-13.92-2.19-20.86-3.42a208.07,208.07,0,0,0-25.86-3q-9-.45-18-.73c-9.58-.3-19.2-.15-28.79-.12-18.55,0-37.09-.09-55.65-.19-19.24-.1-38.49-.09-57.74-.17-18.25-.08-36.5-.07-54.75-.18q-14.31-.11-28.63,0c-11.37.11-22.73.08-34.09.12q-12.3,0-24.57,0c-11.74,0-23.47,0-35.2.06-20.22.19-40.45.19-60.67.23q-6.6,0-13.21,0c-5.68,0-11.37,0-17,0-10.69.05-21.37.1-32.06.09-9.58,0-19.17.08-28.75.11-6.14,0-12.28,0-18.42,0q-7.45,0-14.91,0c-10.5,0-21,.1-31.5,0q-16.62-.09-33.25-.11c-21.55,0-43.09-.16-64.64-.22-10.62,0-21.24-.24-31.86-.31l-32.25-.2c-20.5-.12-41-.21-61.51-.43q-11-.12-22-.12-19.77,0-39.53.36Zm-365.87,11.37.71-.09-.71.09Z" transform="translate(-28.41 -149.42)"/><path class="cls-1" d="M1735.47,689.44h-7c-8.37,0-16.76,0-25.14.06-10.68,0-21.36.09-32,0-19.08-.07-38.17.09-57.24.31-10,.11-20.09.3-30.14.28q-16.07,0-32.15.05c-5.31,0-10.62,0-15.93,0-4.77,0-9.53,0-14.29,0q-16.53,0-33,.07h-21.4c-13.5,0-27,0-40.5.07q-15.12.09-30.25,0c-10.48-.06-20.95,0-31.43.1-11.57.07-23.15.07-34.72.06q-13.83,0-27.65,0c-41.59.16-83.18,0-124.76.28-39.75.26-79.49.45-119.23.8-9.64.09-19.27.28-28.91.44-10.49.17-21,.21-31.47.4-9.83.19-19.66.51-29.48.58q-15.2.1-30.37.33c-26.28.38-52.56,1-78.84,1.29q-20.52.23-41.05.45c-13.16.16-26.32.63-39.48.94-6.35.16-12.7.27-19.05.39-7,.12-14.07.11-21.11.31-12.57.35-25.11,1.31-37.66,2.15-12.32.84-24.64,1.61-37,2.64-12.49,1-25,2.36-37.44,3.61,0,0,0,0,0,0,18.14,1.81,36.28,3.64,54.47,4.93,8.76.62,17.52,1.12,26.27,1.77,9.71.71,19.44,1.3,29.17,1.63,9.32.32,18.65.29,28,.47q15.64.29,31.28.72c19.51.54,39,.71,58.55.91,20.44.22,40.88.7,61.32,1,9.12.12,18.24.32,27.36.46,10.09.15,20.18.11,30.26.33,40.36.88,80.73,1.29,121.1,1.67q29.63.27,59.25.37c20.19.07,40.37.28,60.55.27q25.82,0,51.63.1c24.9.07,49.8.14,74.71,0,9.74,0,19.48,0,29.23.08,10.49.06,21,.12,31.46.06,10.73,0,21.46,0,32.18,0,9.79.05,19.58.1,29.38.06,21.16-.07,42.32,0,63.49.06,4.67,0,9.35,0,14,0,5.43,0,10.87,0,16.3,0,4.42,0,8.84,0,13.25,0,6.33,0,12.65,0,19,0q38.71.38,77.42.59c6.54,0,13.09,0,19.64,0s13.09-.06,19.64,0c12.45.07,24.91.17,37.36.1,12.13-.08,24.25-.22,36.37-.54,11.9-.32,23.77-.53,35.66-1.25,11.09-.67,22.11-2.12,33.11-3.66,4.26-.6,8.5-1.3,12.76-1.92,5.35-.78,10.71-1.52,16.06-2.28,2.32-.29,4.64-.58,7-.9l-.73.1c4.55-.62,9.06-1.54,13.59-2.28s9.33-1.5,14-2.14c2-.27,4.06-.51,6.1-.74,0,0,0,0,0,0-2-.23-4.08-.47-6.11-.74l.2,0c-4.75-.65-9.48-1.4-14.2-2.17-4.53-.74-9-1.66-13.59-2.28l.73.09c-2.31-.31-4.63-.6-6.94-.89-14.48-2.08-29-4.31-43.47-6.12-8.58-1.07-17.16-1.71-25.8-2.15s-17.46-.59-26.2-.79-17.62-.39-26.44-.53c-4.78-.07-9.56-.09-14.35-.09Z" transform="translate(-28.41 -149.42)"/><path class="cls-1" d="M657.59,703c-6.37.28-12.71.89-19,1.69s-12.6,2-18.83,3.33a198.32,198.32,0,0,0-37,12.3c-2.84,1.25-5.65,2.59-8.43,4-1.46.72-2.92,1.44-4.36,2.2q-2.49,1.34-5,2.7c-1.38.76-2.76,1.51-4.12,2.3-1.2.7-2.42,1.36-3.61,2.09-3,1.82-5.9,3.76-8.77,5.77a191.27,191.27,0,0,0-16,12.5c-5.06,4.42-9.86,9.1-14.48,14a228.59,228.59,0,0,0-25,31.76,188,188,0,0,0-9.86,16.64c-3,5.79-5.71,11.75-8.21,17.79s-4.62,12.14-6.59,18.32-3.66,12.57-5.08,18.94c-1.25,5.63-2.11,11.33-2.85,17-.79,6.09-1.28,12.21-1.51,18.34a225.32,225.32,0,0,0,2,38.68c.88,6.38,2,12.73,3.41,19s3.21,12.64,5.17,18.87a200.72,200.72,0,0,0,16,37.14,219.83,219.83,0,0,0,22.16,32.23c4.08,5,8.43,9.77,12.91,14.41.56.58,1.06,1.21,1.63,1.78l1.71,1.71c1.15,1.13,2.32,2.24,3.49,3.35,2.54,2.4,5.15,4.75,7.79,7s5.26,4.3,8,6.37,5.6,4.21,8.48,6.21a170.4,170.4,0,0,0,16.59,10.16,186.23,186.23,0,0,0,18.16,8.36,181,181,0,0,0,18.56,6.31,175.45,175.45,0,0,0,32.44,6,253,253,0,0,0,34.93.79s0,0,0,0q-8.24-.43-16.41-1.5-7.18-1-14.26-2.56c-4.68-1-9.32-2.31-13.92-3.63a255.1,255.1,0,0,1-27.3-9.57c-4.47-1.91-8.88-4-13.24-6.14-4.83-2.4-9.55-5-14.23-7.71a245.13,245.13,0,0,1-27-17.85c-3.25-2.53-6.47-5.11-9.59-7.79q-2.44-2.11-4.82-4.3c-.79-.72-1.58-1.46-2.36-2.2-1-.93-2-1.79-3-2.74a194,194,0,0,1-16.64-18.79,215.09,215.09,0,0,1-15.48-23.08,233.74,233.74,0,0,1-12.83-25.8,198.81,198.81,0,0,1-13.36-49.13,203.92,203.92,0,0,1-1.75-27.61A219.47,219.47,0,0,1,468,885.92c.52-3.79,1.16-7.56,1.85-11.32.87-4.7,1.85-9.39,3-14a190.71,190.71,0,0,1,9.13-27,242.85,242.85,0,0,1,11.59-23.23,191.1,191.1,0,0,1,14.93-22.53,206.17,206.17,0,0,1,18.06-20.34,243.52,243.52,0,0,1,21-18.29q5.52-4.25,11.28-8.19l2.68-1.81c.93-.63,1.83-1.29,2.78-1.9,2-1.29,4-2.57,6-3.78s4.29-2.4,6.4-3.64,4.21-2.27,6.34-3.34c4.42-2.23,8.93-4.28,13.48-6.22l-.62.27a216.53,216.53,0,0,1,53.57-14.8l-.31,0a220.11,220.11,0,0,1,47.1-1.05s0,0,0,0a207,207,0,0,0-29-2c-3.22,0-6.45.07-9.67.22ZM481,989a2.72,2.72,0,0,1,.11.25A2.72,2.72,0,0,0,481,989Zm64.23,84.65.32.24-.32-.24ZM600.88,1106l.33.14-.33-.14Z" transform="translate(-28.41 -149.42)"/><path class="cls-1" d="M605.86,713.39a198.29,198.29,0,0,0-39.92,17.33c-3,1.7-6,3.38-8.91,5.19q-5.07,3.14-10,6.56a193,193,0,0,0-17.89,14.25,216.3,216.3,0,0,0-30.95,34.71,208.73,208.73,0,0,0-35.87,86.77,220.8,220.8,0,0,0-2.63,23.36c-.21,3.6-.22,7.22-.48,10.81-.14,1.89,0,3.79,0,5.68q.08,3.36.26,6.7c.39,7.56,1.21,15.09,2.22,22.6a201.71,201.71,0,0,0,4.54,23.09A273.3,273.3,0,0,0,480,1009.82a146.72,146.72,0,0,0,10.46,20.95,182.82,182.82,0,0,0,12.27,18.53c4.95,6.49,10.1,12.81,15.66,18.8A189.28,189.28,0,0,0,535,1083.78c3.09,2.6,6.25,5.11,9.45,7.58s6.58,4.82,9.9,7.18c3,2.12,6.12,4.07,9.27,6,3.49,2.11,7,4.18,10.67,6.06a174.53,174.53,0,0,0,22.71,9.66,147.68,147.68,0,0,0,23.15,5.9,184.71,184.71,0,0,0,20.7,2.5,156.84,156.84,0,0,0,20.68-.16c3.59-.24,7.17-.62,10.74-1.08,3.38-.44,6.73-.9,10.07-1.55,6.4-1.24,12.68-3,18.94-4.75,0,0,0,0,0,0-4.77,0-9.54-.32-14.29-.75-5-.44-10.1-1-15.12-1.61a318.89,318.89,0,0,1-37.93-7.92c-6.33-1.7-12.59-3.76-18.78-5.93s-12.22-4.48-18.23-7a290,290,0,0,1-26.24-12.62c-4.67-2.61-9.27-5.33-13.72-8.29-3.9-2.59-7.75-5.26-11.48-8.1a243.05,243.05,0,0,1-21-18.54,229,229,0,0,1-19.17-21.77A213.59,213.59,0,0,1,492.1,1009c-.89-1.47-1.9-2.87-2.77-4.35-1.09-1.85-2.16-3.71-3.16-5.62-1.94-3.71-3.72-7.49-5.37-11.34-1.53-3.66-3-7.34-4.29-11.09-1.45-4.2-2.74-8.46-3.94-12.74a187.32,187.32,0,0,1-5.17-24.49c-.55-4.23-1-8.47-1.27-12.73-.15-2.23-.24-4.45-.32-6.68-.09-2.53,0-5.08-.16-7.6a107,107,0,0,1,.32-13.64c.29-4.53.75-9,1.33-13.53a212,212,0,0,1,14.34-52.68A210.13,210.13,0,0,1,548,746.69l-.07,0a205.7,205.7,0,0,1,22.33-15.27,225,225,0,0,1,24.69-12.27l-.23.1a215.19,215.19,0,0,1,25.25-8.85A194.66,194.66,0,0,1,646.54,705h0l.93-.12s0,0,0,0a226.05,226.05,0,0,0-41.6,8.54ZM481.58,832.65l-.08.21.08-.21Zm-14.28,106c0,.19.05.39.08.59,0-.2-.05-.4-.08-.59Zm204,180,.33,0-.33,0Z" transform="translate(-28.41 -149.42)"/><path class="cls-1" d="M656.69,700.26a183.08,183.08,0,0,0-20.92,1.37,188.07,188.07,0,0,0-20.92,3.7A184.28,184.28,0,0,0,574,720.39a204.53,204.53,0,0,0-18.51,10.81,217.92,217.92,0,0,0-17.78,12.89,229,229,0,0,0-24.86,23.38Q507.2,773.6,502,780.14q-2.8,3.55-5.48,7.21c-.82,1.11-1.61,2.25-2.39,3.38l-1.36,2a8.25,8.25,0,0,0-.94,3,5,5,0,0,0-.16.77,5.77,5.77,0,0,0,.15,2.3,5.94,5.94,0,0,0,.54,1.3l0,0,0,.07a5.29,5.29,0,0,0,.88,1.13l.22.21a5.83,5.83,0,0,0,.94.69,5.68,5.68,0,0,0,1.85.68,5.19,5.19,0,0,0,4-.68c.4-.28.8-.55,1.21-.81s.85-.67,1.28-1a21.19,21.19,0,0,0,1.46-2c.93-1.34,1.88-2.67,2.83-4,1.57-2.24,3.21-4.45,4.87-6.62a206.36,206.36,0,0,1,16.12-18.33,199.36,199.36,0,0,1,19-16.68c.57-.43,1.13-.87,1.69-1.31l-1.29,1a207.26,207.26,0,0,1,24-15.89,247.77,247.77,0,0,1,55.88-22.89,249.29,249.29,0,0,1,31.43-6.38,242.8,242.8,0,0,1,39.77-2.35s0,0,0,0c-6.7-1.43-13.44-2.65-20.23-3.49a171,171,0,0,0-21-1.28Z" transform="translate(-28.41 -149.42)"/><path class="cls-1" d="M671.64,699.23a160.28,160.28,0,0,0-23.21,2.84c-3.56.72-7.09,1.62-10.58,2.61-3.75,1.07-7.42,2.44-11.11,3.68,0,0,0,0,0,0,3-.33,6-.49,9.06-.62,3.33-.14,6.65-.24,10-.33,6.56-.17,13.12-.15,19.68,0a346.18,346.18,0,0,1,39.64,3.42l-.85-.11q2.47.35,4.92.72c1,.15,1.94.29,2.91.4a4,4,0,0,0,1.57,0l1.51-.12a4.09,4.09,0,0,0,2.8-1.16,4,4,0,0,0,0-5.6,4.1,4.1,0,0,0-.81-.61h0l-1.94-1a13,13,0,0,0-2.71-.89c-1.86-.5-3.79-.79-5.68-1.13-4.06-.75-8.15-1.3-12.27-1.68q-7.23-.67-14.49-.68-4.22,0-8.43.23Z" transform="translate(-28.41 -149.42)"/><path class="cls-1" d="M503,789.34a192,192,0,0,0-22,36,188,188,0,0,0-13.44,40.05c-1.35,6.24-2.37,12.54-3.12,18.87,0,0,0,0,0,0a224.29,224.29,0,0,1,10.76-41.17c1.36-3.75,2.83-7.46,4.36-11.14,2.74-6.46,5.72-12.8,9-19s6.94-12.32,10.8-18.24c1.17-1.79,2.36-3.57,3.58-5.32l0,0Z" transform="translate(-28.41 -149.42)"/><path class="cls-1" d="M90.41,888.86q-8.82.51-17.57,1.68l-3.63.49c-6.93.94-13.84,2.05-20.65,3.61-2.76.63-5.54,1.23-8.27,2-4,1-7.86,2.37-11.87,3.31,0,0,0,0,0,0,2.08.48,4.14,1.07,6.19,1.64,1.8.51,3.58,1.18,5.4,1.6,2.68.62,5.36,1.28,8.05,1.9,6.84,1.6,13.8,2.72,20.76,3.68h0l.12,0,.35,0,.34,0,.24,0c6.22.85,12.46,1.58,18.74,2,5.42.34,10.86.36,16.29.2,6.64-.19,13.32-.11,20,0,7,.06,14,0,21.06.07,11.77.09,23.54,0,35.31,0,6.51,0,13-.14,19.53-.19l9.79-.11c1.5,0,3,0,4.49-.13a47,47,0,0,0,6.57-1.14l.58-.12c3.05-.25,6.08-.38,9.1-.83,2.61-.26,5.22-.32,7.84-.46,3.43-.18,6.85-.57,10.28-.77,3.2-.19,6.41-.32,9.61-.46s6.59-.43,9.88-.54l9.28-.32c3.12-.09,6.23-.32,9.36-.38,6.45-.13,12.91-.23,19.36-.39,13.83-.34,27.64-1.21,41.46-1.59,7-.19,14-.08,21,0s13.94.18,20.9.4c4,.12,8,.05,12-.09,1.21,0,2.43,0,3.66,0a42.8,42.8,0,0,0,6.31-.19c3.63-.26,7.29-.28,10.93-.45,4.4-.19,8.78-.52,13.17-.91,4-.36,8-.68,12-1,4.5-.4,9-1,13.5-1.42,0,0,0,0,0,0-8.5-.9-17-1.8-25.51-2.47-4.12-.32-8.23-.67-12.36-.87-3.93-.19-7.87-.2-11.79-.48a43.13,43.13,0,0,0-5.8-.15c-2.64,0-5.28-.08-7.93-.13-6.16-.09-12.3.14-18.46.25-13.73.24-27.45.37-41.16-.15-6.7-.26-13.4-.63-20.1-.92-7.33-.32-14.67-.4-22-.55-2.85-.06-5.7-.15-8.55-.19-3.12,0-6.24-.28-9.36-.38l-9.06-.3c-3.34-.12-6.67-.37-10-.54-4.95-.24-9.92-.39-14.87-.8-2.45-.2-4.9-.44-7.35-.54-2.1-.08-4.18-.17-6.27-.38-3-.44-6-.58-9-.82l-2.8-.59a33.89,33.89,0,0,0-5.94-.77c-3.35-.11-6.7-.08-10.05-.13-6.81-.1-13.63-.06-20.45-.19q-8.15-.13-16.29-.1h-8.43q-5,0-9.91,0c-7,0-13.93,0-20.9.08s-13.72.08-20.58,0c-3.18,0-6.36-.12-9.54-.12-2.34,0-4.68,0-7,.18Z" transform="translate(-28.41 -149.42)"/><path class="cls-2" d="M1956.83,1210.42a2.45,2.45,0,0,0-.72.41,9.14,9.14,0,0,0-1.47,1.38,5.62,5.62,0,0,0-.66.88c0,.11-.09.21-.14.31s0,.24.2.2a2.42,2.42,0,0,0,.72-.4,9.21,9.21,0,0,0,1.47-1.39,5.19,5.19,0,0,0,.66-.88c0-.11.09-.21.13-.31s0-.21-.1-.21Z" transform="translate(-28.41 -149.42)"/><path class="cls-2" d="M1139.59,328.83A837,837,0,0,0,828,439.14,849.59,849.59,0,0,0,663.61,567.37l-.18.18-.17.17c-.09.08-.17.17-.26.26l-.19.19q-18.18,18.27-35.3,37.53C615.9,618.76,604.76,632.23,594,646a3.38,3.38,0,0,0-.58,1c0,.52.47.22.72.09a8.32,8.32,0,0,0,1.26-1,15.65,15.65,0,0,0,2-2.09q5.21-6.66,10.53-13.22,18.48-22.65,38.46-44,8.67-9.2,17.58-18.14l.17-.17q9.93-9.9,20.14-19.5,21-19.56,43.25-37.72,15.32-12.4,31.15-24.13c10.63-7.87,21.47-15.43,32.45-22.78l-.12.08q29.84-19.83,61.21-37.16c20.91-11.54,42.37-22.07,64.19-31.78l-.37.16a834.57,834.57,0,0,1,206.59-60.83,842.74,842.74,0,0,1,222.79-5.23h0q28.83,3.15,57.4,8.25c19.68,3.51,39.21,7.84,58.59,12.75,8.65,2.19,17.25,4.58,25.83,7.06q14.61,4.23,29.06,9,27.6,9.14,54.5,20.21a834.76,834.76,0,0,1,210.12,124.76c19.65,15.92,38.5,32.79,56.64,50.41s35.18,35.95,51.58,55c0,0,0,0,0,.06q11.1,13,21.8,26.32a.71.71,0,0,0,.69-.16,8.71,8.71,0,0,0,1.94-1.59,13.37,13.37,0,0,0,1.22-1.38c.11-.16.78-1,.54-1.25q-10.54-13.47-21.69-26.45h0q-19.59-22.71-40.69-44t-43.58-40.93A845.3,845.3,0,0,0,1711,453.58a829.94,829.94,0,0,0-217.44-99.44c-18.43-5.44-37.08-10.14-55.84-14.27-19.21-4.22-38.58-7.69-58-10.55q-28.22-4.15-56.66-6.32c-20-1.56-40.09-2.27-60.16-2.43l-6.56,0a834.21,834.21,0,0,0-116.67,8.29Zm-455,219.86-.32.3.32-.3Zm-.49.46-.18.17.18-.17Zm-37.77,37.7-.55.58.55-.58Zm-38.47,44-.42.51.42-.51Z" transform="translate(-28.41 -149.42)"/><path class="cls-2" d="M474.6,555.06a7.57,7.57,0,0,0-1.24.93,10.72,10.72,0,0,0-1.93,2q-6.15,9.11-12.09,18.34a.71.71,0,0,0-.17.68c.27.26,1.14-.47,1.26-.55a11.76,11.76,0,0,0,3-3.16q4.13-6.39,8.33-12.72l-.38.57,3.38-5.05a3.44,3.44,0,0,0,.58-1c0-.22-.07-.29-.19-.29a1.37,1.37,0,0,0-.52.2Z" transform="translate(-28.41 -149.42)"/><path class="cls-2" d="M1192.11,150.54c-23.91,1.11-47.76,3.34-71.5,6.32-24.15,3-48.17,7.09-72,12-22.62,4.7-45,10.39-67.23,16.77a914,914,0,0,0-133.55,50.24c-21.41,10-42.39,20.85-63,32.45s-40.9,24.26-60.65,37.49a927,927,0,0,0-108.7,85.51A943.93,943.93,0,0,0,463.06,570.53a.74.74,0,0,0-.18.73c.28.28,1.22-.49,1.34-.58a13.36,13.36,0,0,0,3.19-3.39q2.37-3.62,4.76-7.22,11.54-17.21,23.71-33.93c8.66-11.84,17.66-23.42,26.89-34.82l-.37.45.45-.54.07-.1-.06.08q20.5-25.11,42.63-48.82,20.07-21.3,41.38-41.38,24-22.41,49.45-43.15,16.29-13.17,33.12-25.64c11.54-8.54,23.31-16.76,35.22-24.76l-.23.15q16.08-10.69,32.55-20.78c11.62-7.11,23.42-13.9,35.34-20.48,23.1-12.75,46.79-24.43,70.89-35.15l-.1.05q27.76-12.25,56.28-22.68c19.36-7.1,39-13.46,58.79-19.24,18.64-5.45,37.48-10.17,56.43-14.39q30.08-6.69,60.56-11.32a921,921,0,0,1,119.13-10.21c20.12-.45,40.29-.23,60.4.7,19.58.91,39.12,2.46,58.61,4.53l-.23,0c10.94,1.2,21.84,2.54,32.73,4.1,11.82,1.68,23.59,3.69,35.34,5.84,21.34,3.91,42.5,8.7,63.52,14.11,22.91,5.9,45.55,12.85,67.93,20.52,22.21,7.62,44.1,16.18,65.67,25.48a923.05,923.05,0,0,1,240.17,151.62q19.88,17.31,38.7,35.81c12.24,12,24.07,24.39,35.65,37,11,12,21.66,24.42,32,37q16,19.57,31,40.06a.36.36,0,0,0,0,.09q20.42,28,38.83,57.43v0q4.81,7.8,9.55,15.67,5.77,9.63,11.41,19.35a.72.72,0,0,0,.72-.17,9,9,0,0,0,2-1.66,13.28,13.28,0,0,0,1.26-1.43c.17-.23.77-.93.57-1.31-6.54-12-13.49-23.7-20.74-35.26h0q-18.36-29.4-38.92-57.35h0q-9.72-13.1-19.79-25.91c-6.92-8.75-14-17.33-21.27-25.82-15.17-17.83-31.07-35-47.53-51.68-8.23-8.33-16.69-16.44-25.22-24.46q-14-13.17-28.59-25.7-26.6-23-54.94-43.86a924.18,924.18,0,0,0-123.53-76.83q-30.12-15.61-61.38-28.92c-21.91-9.37-44.21-17.78-66.79-25.4a914.4,914.4,0,0,0-131.66-33.51c-10.89-1.95-21.83-3.62-32.78-5.17s-22-2.9-33.11-4.06c-23.57-2.48-47.22-3.84-70.9-4.52q-12.23-.34-24.46-.34-23.24,0-46.43,1.12ZM522.85,491.23l-.08.09.09-.11v0ZM724.66,307.46l.3-.2-.3.2Z" transform="translate(-28.41 -149.42)"/><path class="cls-2" d="M1863.06,1208a10.79,10.79,0,0,0-1.26,1.07,8.54,8.54,0,0,0-1.45,1.73q-13.47,23.31-28.63,45.61-8.62,12.57-17.76,24.79c-7,9.34-14.26,18.46-21.73,27.43l.47-.56q-15.77,18.84-32.82,36.58-15.27,15.75-31.44,30.6-17.87,16.26-36.8,31.3-12.57,9.93-25.56,19.31-13.5,9.74-27.5,18.82l.43-.28q-24.62,16-50.48,30c-17.56,9.51-35.59,18.19-53.94,26.16Q1515,1509,1495,1516.31c-14.72,5.38-29.66,10.19-44.73,14.59a710.67,710.67,0,0,1-90.21,19.88,727.42,727.42,0,0,1-184,4.44l.15,0q-27.52-2.9-54.75-7.81c-18.6-3.38-37-7.56-55.29-12.38-17.69-4.68-35.15-10.16-52.4-16.19s-34-12.7-50.57-20c-16.3-7.15-32.28-15-48-23.31S884,1458,868.83,1448.45c-15.4-9.76-30.35-20.19-44.92-31.09-14.83-11.08-29.13-22.83-43-35a679.08,679.08,0,0,1-49.77-48.72c-7.34-7.93-14.44-16.07-21.39-24.34-7.48-8.89-14.6-18.06-21.64-27.28a.69.69,0,0,0-.64.15,8.11,8.11,0,0,0-1.84,1.46,11.37,11.37,0,0,0-1.14,1.26c-.11.15-.73.87-.51,1.15,4.89,6.4,10,12.66,15.11,18.87,5.86,7.06,11.89,14,18,20.84q8.07,9,16.48,17.77,9.7,10.13,19.83,19.86a705.08,705.08,0,0,0,278.15,165.25q26.55,8.37,53.71,14.64c18.32,4.27,36.84,7.7,55.45,10.52a726.64,726.64,0,0,0,219.14-.7,714.73,714.73,0,0,0,107.32-25.35c17.37-5.53,34.48-11.8,51.35-18.62,16.18-6.55,32-13.78,47.68-21.49a703.3,703.3,0,0,0,94.71-56.58,707.08,707.08,0,0,0,150.8-144.64,672.51,672.51,0,0,0,52.34-78.22.61.61,0,0,0,.14-.61.2.2,0,0,0-.14,0c-.32,0-.91.48-1,.54Zm-31.38,48.46-.2.3.2-.3Z" transform="translate(-28.41 -149.42)"/><path class="cls-2" d="M2057.5,1243.66a15.54,15.54,0,0,0-1.67,1.47,10.3,10.3,0,0,0-1.92,2.35q-12.11,23.24-25.38,45.79-12,20.28-25,39.9-11.67,17.5-24.08,34.47c-8.59,11.76-17.53,23.26-26.68,34.58q-20.28,24.9-42.18,48.4-20.05,21.33-41.35,41.41-23.6,22.07-48.61,42.51-33.67,27.3-69.71,51.45l.39-.25q-32.43,21.57-66.51,40.42c-23.06,12.77-46.72,24.42-70.79,35.14l.09,0q-26.25,11.58-53.14,21.6c-19,7.08-38.36,13.43-57.83,19.21a902.67,902.67,0,0,1-118.06,26.39c-78.33,12.19-158.22,13.62-237,5.35l.27,0c-12.07-1.31-24.12-2.82-36.14-4.6q-19-2.81-37.86-6.38c-11.63-2.18-23.21-4.69-34.74-7.33-12.1-2.77-24.15-5.82-36.14-9.06-24.14-6.52-48-14.25-71.47-22.79-23.32-8.48-46.28-18-68.84-28.34s-44.44-21.52-66-33.58c-20.88-11.69-41.27-24.3-61.12-37.65s-39.16-27.68-57.94-42.57c-4.42-3.5-8.78-7.06-13.13-10.64-4.14-3.4-8.18-6.92-12.25-10.39-9.87-8.39-19.5-17.06-29-25.87-13.42-12.45-26.35-25.41-39-38.68q-9.7-10.2-19.16-20.64c-6-6.61-11.79-13.39-17.6-20.16-12-14-23.47-28.45-34.66-43.1-12.47-16.33-24.55-33-36-50a1,1,0,0,0-1,.23,12,12,0,0,0-2.76,2.25,18.85,18.85,0,0,0-1.72,2c-.19.27-1.07,1.29-.77,1.77q9.54,14.91,19.53,29.54c3.23,4.73,6.63,9.37,10,14,4,5.56,8.13,11,12.29,16.48,6.63,8.68,13.52,17.17,20.5,25.57q11.25,13.55,23.08,26.59c7.55,8.35,15.22,16.6,23.1,24.65,8.21,8.39,16.64,16.55,25.13,24.65s16.88,15.73,25.53,23.36q14,12.35,28.46,24c8.91,7.14,17.87,14.22,27,21.1,10,7.58,20.3,14.85,30.64,22,9.29,6.44,18.73,12.68,28.24,18.8,10.42,6.71,21,13.11,31.7,19.39q31.88,18.75,65.22,34.82t68.25,29.54c23.33,9,47.05,16.91,71,24q35,10.32,70.84,17.71A922.23,922.23,0,0,0,1198,1742.55a938.9,938.9,0,0,0,151.7-5.89,914.37,914.37,0,0,0,414.08-157.55,928.64,928.64,0,0,0,108.35-88.19,940.15,940.15,0,0,0,96.08-106c17.22-22.09,33.34-45,48.51-68.57s29.18-47.75,42.1-72.57a.86.86,0,0,0,.2-.83.29.29,0,0,0-.19-.06c-.43,0-1.21.64-1.32.72Zm-54,89.61,0,0,0,0Zm-50.71,69-.45.57.45-.57Zm-82.91,89.24-.24.22.24-.22ZM1614.4,1661.13l-.27.12.27-.12Z" transform="translate(-28.41 -149.42)"/></g></svg>